Coordinates
version=1
nRows=8
nColumns=33
inDegrees=yes

Units are S.I. units (second, meters, Newtons, ...)
Angles are in degrees.

endheader
time	ground_thorax_rot_x	ground_thorax_rot_y	ground_thorax_rot_z	ground_thorax_tx	ground_thorax_ty	ground_thorax_tz	clav_prot_r	clav_elev_r	scapula_abduction_r	scapula_elevation_r	scapula_upward_rot_r	scapula_winging_r	shoulder_elv_r	plane_of_elev_r	axial_rot_r	elbow_flexion_r	pro_sup_r	wrist_flex_r	wrist_dev_r	clav_prot_l	clav_elev_l	scapula_abduction_l	scapula_elevation_l	scapula_upward_rot_l	scapula_winging_l	shoulder_elv_l	plane_of_elev_l	axial_rot_l	elbow_flexion_l	pro_sup_l	wrist_flex_l	wrist_dev_l
      0.94000000	      1.75980170	      5.86062124	     -4.27644840	     -0.15012093	      1.00544557	      0.00933371	    -20.68907169	     -9.15709093	    -27.46887442	     -5.32581903	      8.68563049	      2.38803978	     69.13333738	    -50.74152169	     62.17672186	     86.44449755	     20.95585907	     34.87542179	    -12.58673122	     -0.96734433	     -0.83764548	     -1.86196007	     -5.38830573	     -0.61493899	      1.14929199	     41.41427325	    -54.27295711	    -18.08655759	     85.76426152	     15.08309559	     -5.31465489	    -21.41094642
      0.95000000	      1.75999168	      5.85683506	     -4.27241467	     -0.15007658	      1.00526313	      0.00931074	    -20.68940130	     -9.15863338	    -27.46920792	     -5.32542344	      8.68542323	      2.38795282	     69.13201800	    -50.74219453	     62.17672267	     86.44410232	     20.95592339	     34.87475152	    -12.58694238	     -0.96663723	     -0.83960404	     -1.86420986	     -5.38688165	     -0.61286857	      1.14774170	     41.41505664	    -54.26870485	    -18.08659330	     85.76539041	     15.08306226	     -5.31588424	    -21.41194203
      0.96000000	      1.75899322	      5.83658930	     -4.22063621	     -0.15035312	      1.00535610	      0.00935447	    -20.68590827	     -9.18032668	    -27.45525834	     -5.34966776	      8.69308822	      2.39662931	     69.09780923	    -50.72892856	     62.16449698	     86.45013070	     20.95613837	     34.85628843	    -12.59425194	     -0.95504470	     -0.85460246	     -1.88832465	     -5.37382574	     -0.61651359	      1.15343236	     41.41880053	    -54.21805014	    -18.09751125	     85.78133009	     15.08504220	     -5.35168942	    -21.44008107
      0.97000000	      1.75880655	      5.83267184	     -4.21605034	     -0.15025746	      1.00523034	      0.00933152	    -20.68625207	     -9.18129845	    -27.45474476	     -5.35105381	      8.69361116	      2.39701948	     69.09664488	    -50.72822901	     62.16360370	     86.45046465	     20.95610473	     34.85560622	    -12.59453183	     -0.95378683	     -0.85541200	     -1.89072325	     -5.37182784	     -0.61483416	      1.15227596	     41.42010749	    -54.21409127	    -18.09758655	     85.78213794	     15.08504392	     -5.35309950	    -21.44108238
      0.98000000	      1.74922817	      5.80054325	     -4.14583087	     -0.15058876	      1.00533427	      0.00932031	    -20.68663820	     -9.22630893	    -27.42559187	     -5.40433014	      8.72740347	      2.40827023	     69.05728336	    -50.67891565	     62.12276853	     86.48851045	     20.95227740	     34.83603324	    -12.60316497	     -0.93419644	     -0.86371139	     -1.92329169	     -5.36985348	     -0.62791199	      1.15902712	     41.43067918	    -54.17633797	    -18.11633205	     85.78976680	     15.08859294	     -5.39317769	    -21.47001565
      0.99000000	      1.75157592	      5.76833456	     -4.11844619	     -0.15060741	      1.00526824	      0.00937352	    -20.68916593	     -9.23699347	    -27.42290729	     -5.41770233	      8.73706558	      2.41288002	     69.04488394	    -50.66897916	     62.11056210	     86.50077907	     20.95121353	     34.82981875	    -12.60521258	     -0.92742646	     -0.86697683	     -1.93888668	     -5.36378191	     -0.62021525	      1.16431492	     41.44406106	    -54.15401520	    -18.11711227	     85.79687307	     15.08869629	     -5.40639548	    -21.47887873
      1.00000000	      1.74604224	      5.76444742	     -4.05828944	     -0.15077902	      1.00531162	      0.00930416	    -20.68852352	     -9.27203369	    -27.39914486	     -5.45872694	      8.76363008	      2.42047395	     69.02122464	    -50.62541522	     62.07865699	     86.54101253	     20.94653318	     34.82125592	    -12.60879635	     -0.91928170	     -0.87129475	     -1.95530917	     -5.36095968	     -0.62257360	      1.16928367	     41.45354720	    -54.13473244	    -18.12485605	     85.80609458	     15.08965095	     -5.42474495	    -21.49188070
      1.01000000	      1.74590008	      5.76143022	     -4.05233341	     -0.15059206	      1.00519022	      0.00924333	    -20.68849507	     -9.27445828	    -27.39790995	     -5.46136143	      8.76526546	      2.42173133	     69.01927780	    -50.62279959	     62.07667535	     86.54384106	     20.94621743	     34.82070086	    -12.60894997	     -0.91777972	     -0.87208271	     -1.95783988	     -5.35970217	     -0.62108833	      1.16755161	     41.45477301	    -54.13163537	    -18.12534503	     85.80709368	     15.08964449	     -5.42585327	    -21.49266809
